<?xml version="1.0" encoding="utf-8" ?>
<svg baseProfile="full" height="300mm" version="1.1" viewBox="0,0,200,300" width="200mm" xmlns="http://www.w3.org/2000/svg" xmlns:ev="http://www.w3.org/2001/xml-events" xmlns:xlink="http://www.w3.org/1999/xlink"><defs /><rect fill="#222222" height="300" width="200" x="0" y="0" /><text fill="#555555" style="font-size:6px; font-family:Arial;" x="11" y="19">Running for 4219 Days</text><text fill="#555555" style="font-size:6px; font-family:Arial;" x="11" y="39">Races</text><text fill="#555555" style="font-size:8px; font-family:Arial;" x="11" y="59">1</text><text fill="#FFFFFF" style="font-size:10px; font-family:Arial; font-weight:bold;" x="23" y="59">Full</text><text fill="#555555" style="font-size:6px; font-family:Arial;" x="49" y="59">1x</text><text fill="#555555" style="font-size:8px; font-family:Arial;" x="11" y="77">2</text><text fill="#FFFFFF" style="font-size:10px; font-family:Arial; font-weight:bold;" x="23" y="77">Half</text><text fill="#555555" style="font-size:6px; font-family:Arial;" x="49" y="77">2x</text><text fill="#555555" style="font-size:8px; font-family:Arial;" x="11" y="95">3</text><text fill="#FFFFFF" style="font-size:10px; font-family:Arial; font-weight:bold;" x="23" y="95">10K</text><text fill="#555555" style="font-size:6px; font-family:Arial;" x="49" y="95">32x</text><text fill="#555555" style="font-size:6px; font-family:Arial;" x="11" y="133">Stats</text><text fill="#555555" style="font-size:5px; font-family:Arial;" x="11" y="139">Distance</text><text fill="#FFFFFF" style="font-size:10px; font-family:Arial; font-weight:bold;" x="11" y="150">927</text><text fill="#555555" style="font-size:6px; font-family:Arial;" x="29" y="150">km</text><text fill="#555555" style="font-size:5px; font-family:Arial;" x="53" y="139">Runs</text><text fill="#FFFFFF" style="font-size:10px; font-family:Arial; font-weight:bold;" x="53" y="150">153</text><text fill="#555555" style="font-size:5px; font-family:Arial;" x="11" y="167">Avg Pace</text><text fill="#FFFFFF" style="font-size:10px; font-family:Arial; font-weight:bold;" x="11" y="178">8'15"</text><text fill="#555555" style="font-size:5px; font-family:Arial;" x="53" y="167">Streak</text><text fill="#FFFFFF" style="font-size:10px; font-family:Arial; font-weight:bold;" x="53" y="178">5</text><text fill="#555555" style="font-size:6px; font-family:Arial;" x="59" y="178">d</text><text fill="#555555" style="font-size:5px; font-family:Arial;" x="11" y="195">Time</text><text fill="#FFFFFF" style="font-size:10px; font-family:Arial; font-weight:bold;" x="11" y="206">127</text><text fill="#555555" style="font-size:6px; font-family:Arial;" x="29" y="206">h</text><text fill="#555555" style="font-size:5px; font-family:Arial;" x="53" y="195">Longest</text><text fill="#FFFFFF" style="font-size:10px; font-family:Arial; font-weight:bold;" x="53" y="206">42.1</text><text fill="#555555" style="font-size:5px; font-family:Arial;" x="11" y="252.0645161290322">Runner</text><text fill="#FFFFFF" style="font-size:8px; font-family:Arial; font-weight:bold;" x="11" y="262.0645161290322">yihong0618</text><text fill="#555555" style="font-size:7px; font-family:Arial;" x="11" y="285.5806451612903">running_page/2023</text><circle cx="85.41666666666667" cy="17.419354838709676" fill="#555555" r="3.3125"><title>2023-01-01</title></circle><circle cx="85.41666666666667" cy="26.25806451612903" fill="#555555" r="3.3125"><title>2023-01-02</title></circle><circle cx="85.41666666666667" cy="35.096774193548384" fill="#555555" r="3.3125"><title>2023-01-03</title></circle><circle cx="85.41666666666667" cy="43.935483870967744" fill="#555555" r="3.3125"><title>2023-01-04</title></circle><circle cx="85.41666666666667" cy="52.774193548387096" fill="#555555" r="3.3125"><title>2023-01-05</title></circle><circle cx="85.41666666666667" cy="61.61290322580645" fill="#555555" r="3.3125"><title>2023-01-06</title></circle><circle cx="85.41666666666667" cy="70.45161290322581" fill="#555555" r="3.3125"><title>2023-01-07</title></circle><circle cx="85.41666666666667" cy="79.29032258064517" fill="#555555" r="3.3125"><title>2023-01-08</title></circle><circle cx="85.41666666666667" cy="88.12903225806451" fill="#555555" r="3.3125"><title>2023-01-09</title></circle><circle cx="85.41666666666667" cy="96.96774193548387" fill="#555555" r="3.3125"><title>2023-01-10</title></circle><circle cx="85.41666666666667" cy="105.80645161290322" fill="#555555" r="3.3125"><title>2023-01-11</title></circle><circle cx="85.41666666666667" cy="114.64516129032258" fill="#555555" r="3.3125"><title>2023-01-12</title></circle><circle cx="85.41666666666667" cy="123.48387096774194" fill="#555555" r="3.3125"><title>2023-01-13</title></circle><circle cx="85.41666666666667" cy="132.32258064516128" fill="#555555" r="3.3125"><title>2023-01-14</title></circle><circle cx="85.41666666666667" cy="141.16129032258064" fill="#555555" r="3.3125"><title>2023-01-15</title></circle><circle cx="85.41666666666667" cy="149.99999999999997" fill="#555555" r="3.3125"><title>2023-01-16</title></circle><circle cx="85.41666666666667" cy="158.83870967741933" fill="#555555" r="3.3125"><title>2023-01-17</title></circle><circle cx="85.41666666666667" cy="167.6774193548387" fill="#555555" r="3.3125"><title>2023-01-18</title></circle><circle cx="85.41666666666667" cy="176.51612903225805" fill="#555555" r="3.3125"><title>2023-01-19</title></circle><circle cx="85.41666666666667" cy="185.35483870967738" fill="#555555" r="3.3125"><title>2023-01-20</title></circle><circle cx="85.41666666666667" cy="194.19354838709674" fill="#555555" r="3.3125"><title>2023-01-21</title></circle><circle cx="85.41666666666667" cy="203.0322580645161" fill="#555555" r="3.3125"><title>2023-01-22</title></circle><circle cx="85.41666666666667" cy="211.87096774193546" fill="#555555" r="3.3125"><title>2023-01-23</title></circle><circle cx="85.41666666666667" cy="220.70967741935482" fill="#555555" r="3.3125"><title>2023-01-24</title></circle><circle cx="85.41666666666667" cy="229.54838709677418" fill="#555555" r="3.3125"><title>2023-01-25</title></circle><circle cx="85.41666666666667" cy="238.3870967741935" fill="#555555" r="3.3125"><title>2023-01-26</title></circle><circle cx="85.41666666666667" cy="247.22580645161287" fill="#555555" r="3.3125"><title>2023-01-27</title></circle><circle cx="85.41666666666667" cy="256.06451612903226" fill="#555555" r="3.3125"><title>2023-01-28</title></circle><circle cx="85.41666666666667" cy="264.90322580645164" fill="#555555" r="3.3125"><title>2023-01-29</title></circle><circle cx="85.41666666666667" cy="273.741935483871" fill="#555555" r="3.3125"><title>2023-01-30</title></circle><circle cx="85.41666666666667" cy="282.5806451612903" fill="#555555" r="3.3125"><title>2023-01-31</title></circle><circle cx="94.25" cy="17.419354838709676" fill="#555555" r="3.3125"><title>2023-02-01</title></circle><circle cx="94.25" cy="26.25806451612903" fill="#555555" r="3.3125"><title>2023-02-02</title></circle><circle cx="94.25" cy="35.096774193548384" fill="#555555" r="3.3125"><title>2023-02-03</title></circle><circle cx="94.25" cy="43.935483870967744" fill="#555555" r="3.3125"><title>2023-02-04</title></circle><circle cx="94.25" cy="52.774193548387096" fill="#555555" r="3.3125"><title>2023-02-05</title></circle><circle cx="94.25" cy="61.61290322580645" fill="#555555" r="3.3125"><title>2023-02-06</title></circle><circle cx="94.25" cy="70.45161290322581" fill="#555555" r="3.3125"><title>2023-02-07</title></circle><circle cx="94.25" cy="79.29032258064517" fill="#555555" r="3.3125"><title>2023-02-08</title></circle><circle cx="94.25" cy="88.12903225806451" fill="#555555" r="3.3125"><title>2023-02-09</title></circle><circle cx="94.25" cy="96.96774193548387" fill="#555555" r="3.3125"><title>2023-02-10</title></circle><circle cx="94.25" cy="105.80645161290322" fill="#555555" r="3.3125"><title>2023-02-11</title></circle><circle cx="94.25" cy="114.64516129032258" fill="#555555" r="3.3125"><title>2023-02-12</title></circle><circle cx="94.25" cy="123.48387096774194" fill="#555555" r="3.3125"><title>2023-02-13</title></circle><circle cx="94.25" cy="132.32258064516128" fill="#5094ab" r="3.3125"><title>2023-02-14: 5 km</title></circle><circle cx="94.25" cy="141.16129032258064" fill="#555555" r="3.3125"><title>2023-02-15</title></circle><circle cx="94.25" cy="149.99999999999997" fill="#50a0bb" r="3.3125"><title>2023-02-16: 6 km</title></circle><circle cx="94.25" cy="158.83870967741933" fill="#546166" r="3.3125"><title>2023-02-17: 1 km</title></circle><circle cx="94.25" cy="167.6774193548387" fill="#555555" r="3.3125"><title>2023-02-18</title></circle><circle cx="94.25" cy="176.51612903225805" fill="#555555" r="3.3125"><title>2023-02-19</title></circle><circle cx="94.25" cy="185.35483870967738" fill="#50a2bf" r="3.3125"><title>2023-02-20: 6 km</title></circle><circle cx="94.25" cy="194.19354838709674" fill="#53676d" r="3.3125"><title>2023-02-21: 1 km</title></circle><circle cx="94.25" cy="203.0322580645161" fill="#4eb3d5" r="3.3125"><title>2023-02-22: 7 km</title></circle><circle cx="94.25" cy="211.87096774193546" fill="#53686f" r="3.3125"><title>2023-02-23: 1 km</title></circle><circle cx="94.25" cy="220.70967741935482" fill="#4ebce1" r="3.3125"><title>2023-02-24: 8 km</title></circle><circle cx="94.25" cy="229.54838709677418" fill="#555555" r="3.3125"><title>2023-02-25</title></circle><circle cx="94.25" cy="238.3870967741935" fill="#555555" r="3.3125"><title>2023-02-26</title></circle><circle cx="94.25" cy="247.22580645161287" fill="#4ebade" r="3.3125"><title>2023-02-27: 8 km</title></circle><circle cx="94.25" cy="256.06451612903226" fill="#555555" r="3.3125"><title>2023-02-28</title></circle><circle cx="103.08333333333334" cy="17.419354838709676" fill="#555555" r="3.3125"><title>2023-03-01</title></circle><circle cx="103.08333333333334" cy="26.25806451612903" fill="#4dc7f0" r="3.3125"><title>2023-03-02: 9 km</title></circle><circle cx="103.08333333333334" cy="35.096774193548384" fill="#FFFF00" r="3.3125"><title>2023-03-03: 10 km</title></circle><circle cx="103.08333333333334" cy="43.935483870967744" fill="#555555" r="3.3125"><title>2023-03-04</title></circle><circle cx="103.08333333333334" cy="52.774193548387096" fill="#536e77" r="3.3125"><title>2023-03-05: 2 km</title></circle><circle cx="103.08333333333334" cy="61.61290322580645" fill="#536f79" r="3.3125"><title>2023-03-06: 2 km</title></circle><circle cx="103.08333333333334" cy="70.45161290322581" fill="#FFFF00" r="3.3125"><title>2023-03-07: 10 km</title></circle><circle cx="103.08333333333334" cy="79.29032258064517" fill="#FFFF00" r="3.3125"><title>2023-03-08: 10 km</title></circle><circle cx="103.08333333333334" cy="88.12903225806451" fill="#536e77" r="3.3125"><title>2023-03-09: 2 km</title></circle><circle cx="103.08333333333334" cy="96.96774193548387" fill="#555555" r="3.3125"><title>2023-03-10</title></circle><circle cx="103.08333333333334" cy="105.80645161290322" fill="#FFFF00" r="3.3125"><title>2023-03-11: 16 km</title></circle><circle cx="103.08333333333334" cy="114.64516129032258" fill="#555555" r="3.3125"><title>2023-03-12</title></circle><circle cx="103.08333333333334" cy="123.48387096774194" fill="#536e77" r="3.3125"><title>2023-03-13: 2 km</title></circle><circle cx="103.08333333333334" cy="132.32258064516128" fill="#555555" r="3.3125"><title>2023-03-14</title></circle><circle cx="103.08333333333334" cy="141.16129032258064" fill="#536e77" r="3.3125"><title>2023-03-15: 2 km</title></circle><circle cx="103.08333333333334" cy="149.99999999999997" fill="#555555" r="3.3125"><title>2023-03-16</title></circle><circle cx="103.08333333333334" cy="158.83870967741933" fill="#555555" r="3.3125"><title>2023-03-17</title></circle><circle cx="103.08333333333334" cy="167.6774193548387" fill="#536e77" r="3.3125"><title>2023-03-18: 2 km</title></circle><circle cx="103.08333333333334" cy="176.51612903225805" fill="#555555" r="3.3125"><title>2023-03-19</title></circle><circle cx="103.08333333333334" cy="185.35483870967738" fill="#536e77" r="3.3125"><title>2023-03-20: 2 km</title></circle><circle cx="103.08333333333334" cy="194.19354838709674" fill="#4dc8f1" r="3.3125"><title>2023-03-21: 9 km</title></circle><circle cx="103.08333333333334" cy="203.0322580645161" fill="#555555" r="3.3125"><title>2023-03-22</title></circle><circle cx="103.08333333333334" cy="211.87096774193546" fill="#536e77" r="3.3125"><title>2023-03-23: 2 km</title></circle><circle cx="103.08333333333334" cy="220.70967741935482" fill="#4dc9f3" r="3.3125"><title>2023-03-24: 9 km</title></circle><circle cx="103.08333333333334" cy="229.54838709677418" fill="#555555" r="3.3125"><title>2023-03-25</title></circle><circle cx="103.08333333333334" cy="238.3870967741935" fill="#536e77" r="3.3125"><title>2023-03-26: 2 km</title></circle><circle cx="103.08333333333334" cy="247.22580645161287" fill="#FFFF00" r="3.3125"><title>2023-03-27: 10 km</title></circle><circle cx="103.08333333333334" cy="256.06451612903226" fill="#536e77" r="3.3125"><title>2023-03-28: 2 km</title></circle><circle cx="103.08333333333334" cy="264.90322580645164" fill="#555555" r="3.3125"><title>2023-03-29</title></circle><circle cx="103.08333333333334" cy="273.741935483871" fill="#555555" r="3.3125"><title>2023-03-30</title></circle><circle cx="103.08333333333334" cy="282.5806451612903" fill="#555555" r="3.3125"><title>2023-03-31</title></circle><circle cx="111.91666666666667" cy="17.419354838709676" fill="#536e77" r="3.3125"><title>2023-04-01: 2 km</title></circle><circle cx="111.91666666666667" cy="26.25806451612903" fill="#FFFF00" r="3.3125"><title>2023-04-02: 18 km</title></circle><circle cx="111.91666666666667" cy="35.096774193548384" fill="#536e77" r="3.3125"><title>2023-04-03: 2 km</title></circle><circle cx="111.91666666666667" cy="43.935483870967744" fill="#527d8b" r="3.3125"><title>2023-04-04: 3 km</title></circle><circle cx="111.91666666666667" cy="52.774193548387096" fill="#555555" r="3.3125"><title>2023-04-05</title></circle><circle cx="111.91666666666667" cy="61.61290322580645" fill="#FFFF00" r="3.3125"><title>2023-04-06: 11 km</title></circle><circle cx="111.91666666666667" cy="70.45161290322581" fill="#FFFF00" r="3.3125"><title>2023-04-07: 11 km</title></circle><circle cx="111.91666666666667" cy="79.29032258064517" fill="#555555" r="3.3125"><title>2023-04-08</title></circle><circle cx="111.91666666666667" cy="88.12903225806451" fill="#FFFF00" r="3.3125"><title>2023-04-09: 23 km</title></circle><circle cx="111.91666666666667" cy="96.96774193548387" fill="#527682" r="3.3125"><title>2023-04-10: 2 km</title></circle><circle cx="111.91666666666667" cy="105.80645161290322" fill="#FFFF00" r="3.3125"><title>2023-04-11: 13 km</title></circle><circle cx="111.91666666666667" cy="114.64516129032258" fill="#555555" r="3.3125"><title>2023-04-12</title></circle><circle cx="111.91666666666667" cy="123.48387096774194" fill="#555555" r="3.3125"><title>2023-04-13</title></circle><circle cx="111.91666666666667" cy="132.32258064516128" fill="#555555" r="3.3125"><title>2023-04-14</title></circle><circle cx="111.91666666666667" cy="141.16129032258064" fill="#555555" r="3.3125"><title>2023-04-15</title></circle><circle cx="111.91666666666667" cy="149.99999999999997" fill="#FFFF00" r="3.3125"><title>2023-04-16: 21 km</title></circle><circle cx="111.91666666666667" cy="158.83870967741933" fill="#555555" r="3.3125"><title>2023-04-17</title></circle><circle cx="111.91666666666667" cy="167.6774193548387" fill="#536e77" r="3.3125"><title>2023-04-18: 2 km</title></circle><circle cx="111.91666666666667" cy="176.51612903225805" fill="#536e77" r="3.3125"><title>2023-04-19: 2 km</title></circle><circle cx="111.91666666666667" cy="185.35483870967738" fill="#536e77" r="3.3125"><title>2023-04-20: 2 km</title></circle><circle cx="111.91666666666667" cy="194.19354838709674" fill="#555555" r="3.3125"><title>2023-04-21</title></circle><circle cx="111.91666666666667" cy="203.0322580645161" fill="#536e77" r="3.3125"><title>2023-04-22: 2 km</title></circle><circle cx="111.91666666666667" cy="211.87096774193546" fill="#555555" r="3.3125"><title>2023-04-23</title></circle><circle cx="111.91666666666667" cy="220.70967741935482" fill="#50a0bb" r="3.3125"><title>2023-04-24: 6 km</title></circle><circle cx="111.91666666666667" cy="229.54838709677418" fill="#555555" r="3.3125"><title>2023-04-25</title></circle><circle cx="111.91666666666667" cy="238.3870967741935" fill="#555555" r="3.3125"><title>2023-04-26</title></circle><circle cx="111.91666666666667" cy="247.22580645161287" fill="#536e77" r="3.3125"><title>2023-04-27: 2 km</title></circle><circle cx="111.91666666666667" cy="256.06451612903226" fill="#FFFF00" r="3.3125"><title>2023-04-28: 10 km</title></circle><circle cx="111.91666666666667" cy="264.90322580645164" fill="#536e77" r="3.3125"><title>2023-04-29: 2 km</title></circle><circle cx="111.91666666666667" cy="273.741935483871" fill="#555555" r="3.3125"><title>2023-04-30</title></circle><circle cx="120.75000000000001" cy="17.419354838709676" fill="#536e77" r="3.3125"><title>2023-05-01: 2 km</title></circle><circle cx="120.75000000000001" cy="26.25806451612903" fill="#555555" r="3.3125"><title>2023-05-02</title></circle><circle cx="120.75000000000001" cy="35.096774193548384" fill="#536e77" r="3.3125"><title>2023-05-03: 2 km</title></circle><circle cx="120.75000000000001" cy="43.935483870967744" fill="#4eb9dd" r="3.3125"><title>2023-05-04: 8 km</title></circle><circle cx="120.75000000000001" cy="52.774193548387096" fill="#536e77" r="3.3125"><title>2023-05-05: 2 km</title></circle><circle cx="120.75000000000001" cy="61.61290322580645" fill="#555555" r="3.3125"><title>2023-05-06</title></circle><circle cx="120.75000000000001" cy="70.45161290322581" fill="#555555" r="3.3125"><title>2023-05-07</title></circle><circle cx="120.75000000000001" cy="79.29032258064517" fill="#527a88" r="3.3125"><title>2023-05-08: 3 km</title></circle><circle cx="120.75000000000001" cy="88.12903225806451" fill="#FFFF00" r="3.3125"><title>2023-05-09: 10 km</title></circle><circle cx="120.75000000000001" cy="96.96774193548387" fill="#536e77" r="3.3125"><title>2023-05-10: 2 km</title></circle><circle cx="120.75000000000001" cy="105.80645161290322" fill="#555555" r="3.3125"><title>2023-05-11</title></circle><circle cx="120.75000000000001" cy="114.64516129032258" fill="#536e77" r="3.3125"><title>2023-05-12: 2 km</title></circle><circle cx="120.75000000000001" cy="123.48387096774194" fill="#536f78" r="3.3125"><title>2023-05-13: 2 km</title></circle><circle cx="120.75000000000001" cy="132.32258064516128" fill="#536e77" r="3.3125"><title>2023-05-14: 2 km</title></circle><circle cx="120.75000000000001" cy="141.16129032258064" fill="#536e77" r="3.3125"><title>2023-05-15: 2 km</title></circle><circle cx="120.75000000000001" cy="149.99999999999997" fill="#555555" r="3.3125"><title>2023-05-16</title></circle><circle cx="120.75000000000001" cy="158.83870967741933" fill="#FFFF00" r="3.3125"><title>2023-05-17: 10 km</title></circle><circle cx="120.75000000000001" cy="167.6774193548387" fill="#555555" r="3.3125"><title>2023-05-18</title></circle><circle cx="120.75000000000001" cy="176.51612903225805" fill="#536e77" r="3.3125"><title>2023-05-19: 2 km</title></circle><circle cx="120.75000000000001" cy="185.35483870967738" fill="#555555" r="3.3125"><title>2023-05-20</title></circle><circle cx="120.75000000000001" cy="194.19354838709674" fill="#555555" r="3.3125"><title>2023-05-21</title></circle><circle cx="120.75000000000001" cy="203.0322580645161" fill="#FFFF00" r="3.3125"><title>2023-05-22: 11 km</title></circle><circle cx="120.75000000000001" cy="211.87096774193546" fill="#53747f" r="3.3125"><title>2023-05-23: 2 km</title></circle><circle cx="120.75000000000001" cy="220.70967741935482" fill="#536e77" r="3.3125"><title>2023-05-24: 2 km</title></circle><circle cx="120.75000000000001" cy="229.54838709677418" fill="#555555" r="3.3125"><title>2023-05-25</title></circle><circle cx="120.75000000000001" cy="238.3870967741935" fill="#FFFF00" r="3.3125"><title>2023-05-26: 11 km</title></circle><circle cx="120.75000000000001" cy="247.22580645161287" fill="#546267" r="3.3125"><title>2023-05-27: 1 km</title></circle><circle cx="120.75000000000001" cy="256.06451612903226" fill="#53747f" r="3.3125"><title>2023-05-28: 2 km</title></circle><circle cx="120.75000000000001" cy="264.90322580645164" fill="#555555" r="3.3125"><title>2023-05-29</title></circle><circle cx="120.75000000000001" cy="273.741935483871" fill="#536e77" r="3.3125"><title>2023-05-30: 2 km</title></circle><circle cx="120.75000000000001" cy="282.5806451612903" fill="#FFFF00" r="3.3125"><title>2023-05-31: 10 km</title></circle><circle cx="129.58333333333334" cy="17.419354838709676" fill="#555555" r="3.3125"><title>2023-06-01</title></circle><circle cx="129.58333333333334" cy="26.25806451612903" fill="#555555" r="3.3125"><title>2023-06-02</title></circle><circle cx="129.58333333333334" cy="35.096774193548384" fill="#FFFF00" r="3.3125"><title>2023-06-03: 44 km</title></circle><circle cx="129.58333333333334" cy="43.935483870967744" fill="#536e77" r="3.3125"><title>2023-06-04: 2 km</title></circle><circle cx="129.58333333333334" cy="52.774193548387096" fill="#FFFF00" r="3.3125"><title>2023-06-05: 10 km</title></circle><circle cx="129.58333333333334" cy="61.61290322580645" fill="#53747f" r="3.3125"><title>2023-06-06: 2 km</title></circle><circle cx="129.58333333333334" cy="70.45161290322581" fill="#FFFF00" r="3.3125"><title>2023-06-07: 12 km</title></circle><circle cx="129.58333333333334" cy="79.29032258064517" fill="#555555" r="3.3125"><title>2023-06-08</title></circle><circle cx="129.58333333333334" cy="88.12903225806451" fill="#FFFF00" r="3.3125"><title>2023-06-09: 10 km</title></circle><circle cx="129.58333333333334" cy="96.96774193548387" fill="#FFFF00" r="3.3125"><title>2023-06-10: 10 km</title></circle><circle cx="129.58333333333334" cy="105.80645161290322" fill="#536e77" r="3.3125"><title>2023-06-11: 2 km</title></circle><circle cx="129.58333333333334" cy="114.64516129032258" fill="#555555" r="3.3125"><title>2023-06-12</title></circle><circle cx="129.58333333333334" cy="123.48387096774194" fill="#4fa6c3" r="3.3125"><title>2023-06-13: 6 km</title></circle><circle cx="129.58333333333334" cy="132.32258064516128" fill="#555555" r="3.3125"><title>2023-06-14</title></circle><circle cx="129.58333333333334" cy="141.16129032258064" fill="#555555" r="3.3125"><title>2023-06-15</title></circle><circle cx="129.58333333333334" cy="149.99999999999997" fill="#555555" r="3.3125"><title>2023-06-16</title></circle><circle cx="129.58333333333334" cy="158.83870967741933" fill="#555555" r="3.3125"><title>2023-06-17</title></circle><circle cx="129.58333333333334" cy="167.6774193548387" fill="#53747f" r="3.3125"><title>2023-06-18: 2 km</title></circle><circle cx="129.58333333333334" cy="176.51612903225805" fill="#536b73" r="3.3125"><title>2023-06-19: 1 km</title></circle><circle cx="129.58333333333334" cy="185.35483870967738" fill="#50a2be" r="3.3125"><title>2023-06-20: 6 km</title></circle><circle cx="129.58333333333334" cy="194.19354838709674" fill="#555555" r="3.3125"><title>2023-06-21</title></circle><circle cx="129.58333333333334" cy="203.0322580645161" fill="#FFFF00" r="3.3125"><title>2023-06-22: 11 km</title></circle><circle cx="129.58333333333334" cy="211.87096774193546" fill="#FFFF00" r="3.3125"><title>2023-06-23: 26 km</title></circle><circle cx="129.58333333333334" cy="220.70967741935482" fill="#555555" r="3.3125"><title>2023-06-24</title></circle><circle cx="129.58333333333334" cy="229.54838709677418" fill="#555555" r="3.3125"><title>2023-06-25</title></circle><circle cx="129.58333333333334" cy="238.3870967741935" fill="#FFFF00" r="3.3125"><title>2023-06-26: 12 km</title></circle><circle cx="129.58333333333334" cy="247.22580645161287" fill="#FFFF00" r="3.3125"><title>2023-06-27: 10 km</title></circle><circle cx="129.58333333333334" cy="256.06451612903226" fill="#555555" r="3.3125"><title>2023-06-28</title></circle><circle cx="129.58333333333334" cy="264.90322580645164" fill="#555555" r="3.3125"><title>2023-06-29</title></circle><circle cx="129.58333333333334" cy="273.741935483871" fill="#555555" r="3.3125"><title>2023-06-30</title></circle><circle cx="138.41666666666666" cy="17.419354838709676" fill="#FFFF00" r="3.3125"><title>2023-07-01: 10 km</title></circle><circle cx="138.41666666666666" cy="26.25806451612903" fill="#546469" r="3.3125"><title>2023-07-02: 1 km</title></circle><circle cx="138.41666666666666" cy="35.096774193548384" fill="#509cb6" r="3.3125"><title>2023-07-03: 5 km</title></circle><circle cx="138.41666666666666" cy="43.935483870967744" fill="#FFFF00" r="3.3125"><title>2023-07-04: 10 km</title></circle><circle cx="138.41666666666666" cy="52.774193548387096" fill="#4dcdf8" r="3.3125"><title>2023-07-05: 9 km</title></circle><circle cx="138.41666666666666" cy="61.61290322580645" fill="#555555" r="3.3125"><title>2023-07-06</title></circle><circle cx="138.41666666666666" cy="70.45161290322581" fill="#5191a6" r="3.3125"><title>2023-07-07: 4 km</title></circle><circle cx="138.41666666666666" cy="79.29032258064517" fill="#555555" r="3.3125"><title>2023-07-08</title></circle><circle cx="138.41666666666666" cy="88.12903225806451" fill="#555555" r="3.3125"><title>2023-07-09</title></circle><circle cx="138.41666666666666" cy="96.96774193548387" fill="#FFFF00" r="3.3125"><title>2023-07-10: 11 km</title></circle><circle cx="138.41666666666666" cy="105.80645161290322" fill="#555555" r="3.3125"><title>2023-07-11</title></circle><circle cx="138.41666666666666" cy="114.64516129032258" fill="#FFFF00" r="3.3125"><title>2023-07-12: 10 km</title></circle><circle cx="138.41666666666666" cy="123.48387096774194" fill="#555555" r="3.3125"><title>2023-07-13</title></circle><circle cx="138.41666666666666" cy="132.32258064516128" fill="#555555" r="3.3125"><title>2023-07-14</title></circle><circle cx="138.41666666666666" cy="141.16129032258064" fill="#555555" r="3.3125"><title>2023-07-15</title></circle><circle cx="138.41666666666666" cy="149.99999999999997" fill="#555555" r="3.3125"><title>2023-07-16</title></circle><circle cx="138.41666666666666" cy="158.83870967741933" fill="#555555" r="3.3125"><title>2023-07-17</title></circle><circle cx="138.41666666666666" cy="167.6774193548387" fill="#555555" r="3.3125"><title>2023-07-18</title></circle><circle cx="138.41666666666666" cy="176.51612903225805" fill="#555555" r="3.3125"><title>2023-07-19</title></circle><circle cx="138.41666666666666" cy="185.35483870967738" fill="#555555" r="3.3125"><title>2023-07-20</title></circle><circle cx="138.41666666666666" cy="194.19354838709674" fill="#555555" r="3.3125"><title>2023-07-21</title></circle><circle cx="138.41666666666666" cy="203.0322580645161" fill="#555555" r="3.3125"><title>2023-07-22</title></circle><circle cx="138.41666666666666" cy="211.87096774193546" fill="#555555" r="3.3125"><title>2023-07-23</title></circle><circle cx="138.41666666666666" cy="220.70967741935482" fill="#50a0bb" r="3.3125"><title>2023-07-24: 6 km</title></circle><circle cx="138.41666666666666" cy="229.54838709677418" fill="#FFFF00" r="3.3125"><title>2023-07-25: 10 km</title></circle><circle cx="138.41666666666666" cy="238.3870967741935" fill="#FFFF00" r="3.3125"><title>2023-07-26: 10 km</title></circle><circle cx="138.41666666666666" cy="247.22580645161287" fill="#555555" r="3.3125"><title>2023-07-27</title></circle><circle cx="138.41666666666666" cy="256.06451612903226" fill="#555555" r="3.3125"><title>2023-07-28</title></circle><circle cx="138.41666666666666" cy="264.90322580645164" fill="#555555" r="3.3125"><title>2023-07-29</title></circle><circle cx="138.41666666666666" cy="273.741935483871" fill="#555555" r="3.3125"><title>2023-07-30</title></circle><circle cx="138.41666666666666" cy="282.5806451612903" fill="#555555" r="3.3125"><title>2023-07-31</title></circle><circle cx="147.25" cy="17.419354838709676" fill="#555555" r="3.3125"><title>2023-08-01</title></circle><circle cx="147.25" cy="26.25806451612903" fill="#555555" r="3.3125"><title>2023-08-02</title></circle><circle cx="147.25" cy="35.096774193548384" fill="#555555" r="3.3125"><title>2023-08-03</title></circle><circle cx="147.25" cy="43.935483870967744" fill="#555555" r="3.3125"><title>2023-08-04</title></circle><circle cx="147.25" cy="52.774193548387096" fill="#555555" r="3.3125"><title>2023-08-05</title></circle><circle cx="147.25" cy="61.61290322580645" fill="#555555" r="3.3125"><title>2023-08-06</title></circle><circle cx="147.25" cy="70.45161290322581" fill="#555555" r="3.3125"><title>2023-08-07</title></circle><circle cx="147.25" cy="79.29032258064517" fill="#555555" r="3.3125"><title>2023-08-08</title></circle><circle cx="147.25" cy="88.12903225806451" fill="#546267" r="3.3125"><title>2023-08-09: 1 km</title></circle><circle cx="147.25" cy="96.96774193548387" fill="#4faccc" r="3.3125"><title>2023-08-10: 7 km</title></circle><circle cx="147.25" cy="105.80645161290322" fill="#546166" r="3.3125"><title>2023-08-11: 1 km</title></circle><circle cx="147.25" cy="114.64516129032258" fill="#555555" r="3.3125"><title>2023-08-12</title></circle><circle cx="147.25" cy="123.48387096774194" fill="#555555" r="3.3125"><title>2023-08-13</title></circle><circle cx="147.25" cy="132.32258064516128" fill="#536c75" r="3.3125"><title>2023-08-14: 1 km</title></circle><circle cx="147.25" cy="141.16129032258064" fill="#546166" r="3.3125"><title>2023-08-15: 1 km</title></circle><circle cx="147.25" cy="149.99999999999997" fill="#555555" r="3.3125"><title>2023-08-16</title></circle><circle cx="147.25" cy="158.83870967741933" fill="#555555" r="3.3125"><title>2023-08-17</title></circle><circle cx="147.25" cy="167.6774193548387" fill="#555555" r="3.3125"><title>2023-08-18</title></circle><circle cx="147.25" cy="176.51612903225805" fill="#555555" r="3.3125"><title>2023-08-19</title></circle><circle cx="147.25" cy="185.35483870967738" fill="#555555" r="3.3125"><title>2023-08-20</title></circle><circle cx="147.25" cy="194.19354838709674" fill="#555555" r="3.3125"><title>2023-08-21</title></circle><circle cx="147.25" cy="203.0322580645161" fill="#555555" r="3.3125"><title>2023-08-22</title></circle><circle cx="147.25" cy="211.87096774193546" fill="#555555" r="3.3125"><title>2023-08-23</title></circle><circle cx="147.25" cy="220.70967741935482" fill="#555555" r="3.3125"><title>2023-08-24</title></circle><circle cx="147.25" cy="229.54838709677418" fill="#555555" r="3.3125"><title>2023-08-25</title></circle><circle cx="147.25" cy="238.3870967741935" fill="#555555" r="3.3125"><title>2023-08-26</title></circle><circle cx="147.25" cy="247.22580645161287" fill="#555555" r="3.3125"><title>2023-08-27</title></circle><circle cx="147.25" cy="256.06451612903226" fill="#555555" r="3.3125"><title>2023-08-28</title></circle><circle cx="147.25" cy="264.90322580645164" fill="#546166" r="3.3125"><title>2023-08-29: 1 km</title></circle><circle cx="147.25" cy="273.741935483871" fill="#4ebadf" r="3.3125"><title>2023-08-30: 8 km</title></circle><circle cx="147.25" cy="282.5806451612903" fill="#546267" r="3.3125"><title>2023-08-31: 1 km</title></circle><circle cx="156.08333333333334" cy="17.419354838709676" fill="#5093aa" r="3.3125"><title>2023-09-01: 5 km</title></circle><circle cx="156.08333333333334" cy="26.25806451612903" fill="#555555" r="3.3125"><title>2023-09-02</title></circle><circle cx="156.08333333333334" cy="35.096774193548384" fill="#555555" r="3.3125"><title>2023-09-03</title></circle><circle cx="156.08333333333334" cy="43.935483870967744" fill="#555555" r="3.3125"><title>2023-09-04</title></circle><circle cx="156.08333333333334" cy="52.774193548387096" fill="#4faccc" r="3.3125"><title>2023-09-05: 7 km</title></circle><circle cx="156.08333333333334" cy="61.61290322580645" fill="#4eb9dd" r="3.3125"><title>2023-09-06: 8 km</title></circle><circle cx="156.08333333333334" cy="70.45161290322581" fill="#555555" r="3.3125"><title>2023-09-07</title></circle><circle cx="156.08333333333334" cy="79.29032258064517" fill="#4eb9dd" r="3.3125"><title>2023-09-08: 8 km</title></circle><circle cx="156.08333333333334" cy="88.12903225806451" fill="#5094aa" r="3.3125"><title>2023-09-09: 5 km</title></circle><circle cx="156.08333333333334" cy="96.96774193548387" fill="#555555" r="3.3125"><title>2023-09-10</title></circle><circle cx="156.08333333333334" cy="105.80645161290322" fill="#555555" r="3.3125"><title>2023-09-11</title></circle><circle cx="156.08333333333334" cy="114.64516129032258" fill="#4eb9dd" r="3.3125"><title>2023-09-12: 8 km</title></circle><circle cx="156.08333333333334" cy="123.48387096774194" fill="#4eb9de" r="3.3125"><title>2023-09-13: 8 km</title></circle><circle cx="156.08333333333334" cy="132.32258064516128" fill="#555555" r="3.3125"><title>2023-09-14</title></circle><circle cx="156.08333333333334" cy="141.16129032258064" fill="#5095ac" r="3.3125"><title>2023-09-15: 5 km</title></circle><circle cx="156.08333333333334" cy="149.99999999999997" fill="#555555" r="3.3125"><title>2023-09-16</title></circle><circle cx="156.08333333333334" cy="158.83870967741933" fill="#555555" r="3.3125"><title>2023-09-17</title></circle><circle cx="156.08333333333334" cy="167.6774193548387" fill="#4ebbdf" r="3.3125"><title>2023-09-18: 8 km</title></circle><circle cx="156.08333333333334" cy="176.51612903225805" fill="#555555" r="3.3125"><title>2023-09-19</title></circle><circle cx="156.08333333333334" cy="185.35483870967738" fill="#53686f" r="3.3125"><title>2023-09-20: 1 km</title></circle><circle cx="156.08333333333334" cy="194.19354838709674" fill="#5096ae" r="3.3125"><title>2023-09-21: 5 km</title></circle><circle cx="156.08333333333334" cy="203.0322580645161" fill="#536e77" r="3.3125"><title>2023-09-22: 2 km</title></circle><circle cx="156.08333333333334" cy="211.87096774193546" fill="#555555" r="3.3125"><title>2023-09-23</title></circle><circle cx="156.08333333333334" cy="220.70967741935482" fill="#555555" r="3.3125"><title>2023-09-24</title></circle><circle cx="156.08333333333334" cy="229.54838709677418" fill="#555555" r="3.3125"><title>2023-09-25</title></circle><circle cx="156.08333333333334" cy="238.3870967741935" fill="#555555" r="3.3125"><title>2023-09-26</title></circle><circle cx="156.08333333333334" cy="247.22580645161287" fill="#555555" r="3.3125"><title>2023-09-27</title></circle><circle cx="156.08333333333334" cy="256.06451612903226" fill="#555555" r="3.3125"><title>2023-09-28</title></circle><circle cx="156.08333333333334" cy="264.90322580645164" fill="#555555" r="3.3125"><title>2023-09-29</title></circle><circle cx="156.08333333333334" cy="273.741935483871" fill="#555555" r="3.3125"><title>2023-09-30</title></circle><circle cx="164.91666666666666" cy="17.419354838709676" fill="#FFFF00" r="3.3125"><title>2023-10-01: 10 km</title></circle><circle cx="164.91666666666666" cy="26.25806451612903" fill="#536e77" r="3.3125"><title>2023-10-02: 2 km</title></circle><circle cx="164.91666666666666" cy="35.096774193548384" fill="#555555" r="3.3125"><title>2023-10-03</title></circle><circle cx="164.91666666666666" cy="43.935483870967744" fill="#FFFF00" r="3.3125"><title>2023-10-04: 15 km</title></circle><circle cx="164.91666666666666" cy="52.774193548387096" fill="#53676e" r="3.3125"><title>2023-10-05: 1 km</title></circle><circle cx="164.91666666666666" cy="61.61290322580645" fill="#536e77" r="3.3125"><title>2023-10-06: 2 km</title></circle><circle cx="164.91666666666666" cy="70.45161290322581" fill="#555555" r="3.3125"><title>2023-10-07</title></circle><circle cx="164.91666666666666" cy="79.29032258064517" fill="#50a0bb" r="3.3125"><title>2023-10-08: 6 km</title></circle><circle cx="164.91666666666666" cy="88.12903225806451" fill="#536e77" r="3.3125"><title>2023-10-09: 2 km</title></circle><circle cx="164.91666666666666" cy="96.96774193548387" fill="#546469" r="3.3125"><title>2023-10-10: 1 km</title></circle><circle cx="164.91666666666666" cy="105.80645161290322" fill="#555555" r="3.3125"><title>2023-10-11</title></circle><circle cx="164.91666666666666" cy="114.64516129032258" fill="#555555" r="3.3125"><title>2023-10-12</title></circle><circle cx="164.91666666666666" cy="123.48387096774194" fill="#555555" r="3.3125"><title>2023-10-13</title></circle><circle cx="164.91666666666666" cy="132.32258064516128" fill="#555555" r="3.3125"><title>2023-10-14</title></circle><circle cx="164.91666666666666" cy="141.16129032258064" fill="#FFFF00" r="3.3125"><title>2023-10-15: 20 km</title></circle><circle cx="164.91666666666666" cy="149.99999999999997" fill="#555555" r="3.3125"><title>2023-10-16</title></circle><circle cx="164.91666666666666" cy="158.83870967741933" fill="#536e77" r="3.3125"><title>2023-10-17: 2 km</title></circle><circle cx="164.91666666666666" cy="167.6774193548387" fill="#536e77" r="3.3125"><title>2023-10-18: 2 km</title></circle><circle cx="164.91666666666666" cy="176.51612903225805" fill="#555555" r="3.3125"><title>2023-10-19</title></circle><circle cx="164.91666666666666" cy="185.35483870967738" fill="#555555" r="3.3125"><title>2023-10-20</title></circle><circle cx="164.91666666666666" cy="194.19354838709674" fill="#546166" r="3.3125"><title>2023-10-21: 1 km</title></circle><circle cx="164.91666666666666" cy="203.0322580645161" fill="#555555" r="3.3125"><title>2023-10-22</title></circle><circle cx="164.91666666666666" cy="211.87096774193546" fill="#4faccc" r="3.3125"><title>2023-10-23: 7 km</title></circle><circle cx="164.91666666666666" cy="220.70967741935482" fill="#4faccc" r="3.3125"><title>2023-10-24: 7 km</title></circle><circle cx="164.91666666666666" cy="229.54838709677418" fill="#555555" r="3.3125"><title>2023-10-25</title></circle><circle cx="164.91666666666666" cy="238.3870967741935" fill="#555555" r="3.3125"><title>2023-10-26</title></circle><circle cx="164.91666666666666" cy="247.22580645161287" fill="#5093aa" r="3.3125"><title>2023-10-27: 5 km</title></circle><circle cx="164.91666666666666" cy="256.06451612903226" fill="#555555" r="3.3125"><title>2023-10-28</title></circle><circle cx="164.91666666666666" cy="264.90322580645164" fill="#555555" r="3.3125"><title>2023-10-29</title></circle><circle cx="164.91666666666666" cy="273.741935483871" fill="#5093aa" r="3.3125"><title>2023-10-30: 5 km</title></circle><circle cx="164.91666666666666" cy="282.5806451612903" fill="#555555" r="3.3125"><title>2023-10-31</title></circle><circle cx="173.75" cy="17.419354838709676" fill="#536e77" r="3.3125"><title>2023-11-01: 2 km</title></circle><circle cx="173.75" cy="26.25806451612903" fill="#50a0bb" r="3.3125"><title>2023-11-02: 6 km</title></circle><circle cx="173.75" cy="35.096774193548384" fill="#555555" r="3.3125"><title>2023-11-03</title></circle><circle cx="173.75" cy="43.935483870967744" fill="#546166" r="3.3125"><title>2023-11-04: 1 km</title></circle><circle cx="173.75" cy="52.774193548387096" fill="#555555" r="3.3125"><title>2023-11-05</title></circle><circle cx="173.75" cy="61.61290322580645" fill="#555555" r="3.3125"><title>2023-11-06</title></circle><circle cx="173.75" cy="70.45161290322581" fill="#50a0bc" r="3.3125"><title>2023-11-07: 6 km</title></circle><circle cx="173.75" cy="79.29032258064517" fill="#555555" r="3.3125"><title>2023-11-08</title></circle><circle cx="173.75" cy="88.12903225806451" fill="#4fadcd" r="3.3125"><title>2023-11-09: 7 km</title></circle><circle cx="173.75" cy="96.96774193548387" fill="#555555" r="3.3125"><title>2023-11-10</title></circle><circle cx="173.75" cy="105.80645161290322" fill="#555555" r="3.3125"><title>2023-11-11</title></circle><circle cx="173.75" cy="114.64516129032258" fill="#555555" r="3.3125"><title>2023-11-12</title></circle><circle cx="173.75" cy="123.48387096774194" fill="#555555" r="3.3125"><title>2023-11-13</title></circle><circle cx="173.75" cy="132.32258064516128" fill="#555555" r="3.3125"><title>2023-11-14</title></circle><circle cx="173.75" cy="141.16129032258064" fill="#555555" r="3.3125"><title>2023-11-15</title></circle><circle cx="173.75" cy="149.99999999999997" fill="#4eb9dd" r="3.3125"><title>2023-11-16: 8 km</title></circle><circle cx="173.75" cy="158.83870967741933" fill="#555555" r="3.3125"><title>2023-11-17</title></circle><circle cx="173.75" cy="167.6774193548387" fill="#555555" r="3.3125"><title>2023-11-18</title></circle><circle cx="173.75" cy="176.51612903225805" fill="#555555" r="3.3125"><title>2023-11-19</title></circle><circle cx="173.75" cy="185.35483870967738" fill="#4eb9dd" r="3.3125"><title>2023-11-20: 8 km</title></circle><circle cx="173.75" cy="194.19354838709674" fill="#536e77" r="3.3125"><title>2023-11-21: 2 km</title></circle><circle cx="173.75" cy="203.0322580645161" fill="#4dc8f2" r="3.3125"><title>2023-11-22: 9 km</title></circle><circle cx="173.75" cy="211.87096774193546" fill="#555555" r="3.3125"><title>2023-11-23</title></circle><circle cx="173.75" cy="220.70967741935482" fill="#4fa5c2" r="3.3125"><title>2023-11-24: 6 km</title></circle><circle cx="173.75" cy="229.54838709677418" fill="#555555" r="3.3125"><title>2023-11-25</title></circle><circle cx="173.75" cy="238.3870967741935" fill="#555555" r="3.3125"><title>2023-11-26</title></circle><circle cx="173.75" cy="247.22580645161287" fill="#555555" r="3.3125"><title>2023-11-27</title></circle><circle cx="173.75" cy="256.06451612903226" fill="#555555" r="3.3125"><title>2023-11-28</title></circle><circle cx="173.75" cy="264.90322580645164" fill="#4eb9dd" r="3.3125"><title>2023-11-29: 8 km</title></circle><circle cx="173.75" cy="273.741935483871" fill="#536e77" r="3.3125"><title>2023-11-30: 2 km</title></circle><circle cx="182.58333333333334" cy="17.419354838709676" fill="#555555" r="3.3125"><title>2023-12-01</title></circle><circle cx="182.58333333333334" cy="26.25806451612903" fill="#555555" r="3.3125"><title>2023-12-02</title></circle><circle cx="182.58333333333334" cy="35.096774193548384" fill="#555555" r="3.3125"><title>2023-12-03</title></circle><circle cx="182.58333333333334" cy="43.935483870967744" fill="#50a2be" r="3.3125"><title>2023-12-04: 6 km</title></circle><circle cx="182.58333333333334" cy="52.774193548387096" fill="#555555" r="3.3125"><title>2023-12-05</title></circle><circle cx="182.58333333333334" cy="61.61290322580645" fill="#555555" r="3.3125"><title>2023-12-06</title></circle><circle cx="182.58333333333334" cy="70.45161290322581" fill="#4fa3bf" r="3.3125"><title>2023-12-07: 6 km</title></circle><circle cx="182.58333333333334" cy="79.29032258064517" fill="#4eb9dd" r="3.3125"><title>2023-12-08: 8 km</title></circle><circle cx="182.58333333333334" cy="88.12903225806451" fill="#555555" r="3.3125"><title>2023-12-09</title></circle><circle cx="182.58333333333334" cy="96.96774193548387" fill="#555555" r="3.3125"><title>2023-12-10</title></circle><circle cx="182.58333333333334" cy="105.80645161290322" fill="#555555" r="3.3125"><title>2023-12-11</title></circle><circle cx="182.58333333333334" cy="114.64516129032258" fill="#555555" r="3.3125"><title>2023-12-12</title></circle><circle cx="182.58333333333334" cy="123.48387096774194" fill="#536e77" r="3.3125"><title>2023-12-13: 2 km</title></circle><circle cx="182.58333333333334" cy="132.32258064516128" fill="#555555" r="3.3125"><title>2023-12-14</title></circle><circle cx="182.58333333333334" cy="141.16129032258064" fill="#555555" r="3.3125"><title>2023-12-15</title></circle><circle cx="182.58333333333334" cy="149.99999999999997" fill="#555555" r="3.3125"><title>2023-12-16</title></circle><circle cx="182.58333333333334" cy="158.83870967741933" fill="#555555" r="3.3125"><title>2023-12-17</title></circle><circle cx="182.58333333333334" cy="167.6774193548387" fill="#555555" r="3.3125"><title>2023-12-18</title></circle><circle cx="182.58333333333334" cy="176.51612903225805" fill="#555555" r="3.3125"><title>2023-12-19</title></circle><circle cx="182.58333333333334" cy="185.35483870967738" fill="#555555" r="3.3125"><title>2023-12-20</title></circle><circle cx="182.58333333333334" cy="194.19354838709674" fill="#555555" r="3.3125"><title>2023-12-21</title></circle><circle cx="182.58333333333334" cy="203.0322580645161" fill="#555555" r="3.3125"><title>2023-12-22</title></circle><circle cx="182.58333333333334" cy="211.87096774193546" fill="#555555" r="3.3125"><title>2023-12-23</title></circle><circle cx="182.58333333333334" cy="220.70967741935482" fill="#555555" r="3.3125"><title>2023-12-24</title></circle><circle cx="182.58333333333334" cy="229.54838709677418" fill="#555555" r="3.3125"><title>2023-12-25</title></circle><circle cx="182.58333333333334" cy="238.3870967741935" fill="#4eb9dd" r="3.3125"><title>2023-12-26: 8 km</title></circle><circle cx="182.58333333333334" cy="247.22580645161287" fill="#546469" r="3.3125"><title>2023-12-27: 1 km</title></circle><circle cx="182.58333333333334" cy="256.06451612903226" fill="#5094ab" r="3.3125"><title>2023-12-28: 5 km</title></circle><circle cx="182.58333333333334" cy="264.90322580645164" fill="#50a2be" r="3.3125"><title>2023-12-29: 6 km</title></circle><circle cx="182.58333333333334" cy="273.741935483871" fill="#555555" r="3.3125"><title>2023-12-30</title></circle><circle cx="182.58333333333334" cy="282.5806451612903" fill="#555555" r="3.3125"><title>2023-12-31</title></circle></svg>